<svg width="269" height="58" viewBox="0 0 269 58" fill="none" xmlns="http://www.w3.org/2000/svg">
<g id="logo-chu-brugmann-white 1" clip-path="url(#clip0_796_1063)">
<path id="Vector" opacity="0.35" d="M19.0212 37.6932C29.5075 37.6932 38.0082 29.2553 38.0082 18.8466C38.0082 8.43791 29.5075 0 19.0212 0C8.53496 0 0.0341797 8.43791 0.0341797 18.8466C0.0341797 29.2553 8.53496 37.6932 19.0212 37.6932Z" fill="white"/>
<path id="Vector_2" opacity="0.35" d="M37.2215 40.8852C46.0073 40.8852 53.1296 33.8156 53.1296 25.0948C53.1296 16.374 46.0073 9.30444 37.2215 9.30444C28.4358 9.30444 21.3135 16.374 21.3135 25.0948C21.3135 33.8156 28.4358 40.8852 37.2215 40.8852Z" fill="white"/>
<path id="Vector_3" opacity="0.35" d="M21.3476 58.0339C33.1375 58.0339 42.6952 48.547 42.6952 36.8442C42.6952 25.1415 33.1375 15.6545 21.3476 15.6545C9.55764 15.6545 0 25.1415 0 36.8442C0 48.547 9.55764 58.0339 21.3476 58.0339Z" fill="white"/>
<g id="Group">
<g id="Group_2">
<g id="Group_3">
<path id="Vector_4" d="M68.9692 29.0678C69.7903 28.898 71.0561 28.7622 72.3561 28.7622C74.2035 28.7622 75.4009 29.0678 76.2904 29.7809C77.043 30.3243 77.4877 31.1732 77.4877 32.2938C77.4877 33.6521 76.564 34.8746 75.0588 35.4179V35.4519C76.4272 35.7915 78.0009 36.9121 78.0009 39.0175C78.0009 40.24 77.522 41.1568 76.8035 41.8699C75.8114 42.7868 74.2035 43.1943 71.8772 43.1943C70.6114 43.1943 69.6192 43.1264 69.0034 43.0245V29.0678H68.9692ZM70.8166 34.8746H72.493C74.443 34.8746 75.6061 33.8559 75.6061 32.4976C75.6061 30.8336 74.3403 30.1884 72.4587 30.1884C71.6035 30.1884 71.1245 30.2564 70.8166 30.3243V34.8746ZM70.8166 41.6662C71.1929 41.7341 71.7061 41.7341 72.3561 41.7341C74.2719 41.7341 76.0167 41.0549 76.0167 38.9835C76.0167 37.0479 74.3403 36.2329 72.3219 36.2329H70.8166V41.6662Z" fill="white"/>
</g>
<g id="Group_4">
<path id="Vector_5" d="M94.0801 29.0678C95.0038 28.8641 96.338 28.7622 97.638 28.7622C99.6222 28.7622 100.888 29.1357 101.778 29.9168C102.496 30.562 102.906 31.5128 102.906 32.5994C102.906 34.4671 101.709 35.7236 100.204 36.2329V36.3009C101.299 36.6744 101.949 37.6931 102.291 39.1533C102.77 41.1229 103.112 42.5151 103.385 43.0585H101.47C101.23 42.651 100.922 41.4285 100.512 39.6627C100.101 37.6931 99.3143 36.98 97.638 36.9121H95.8932V43.0585H94.0801V29.0678ZM95.9275 35.5198H97.8091C99.7933 35.5198 101.025 34.4332 101.025 32.8371C101.025 31.0034 99.6907 30.1884 97.7406 30.1884C96.8512 30.1884 96.2011 30.2564 95.9275 30.3582V35.5198Z" fill="white"/>
</g>
<g id="Group_5">
<path id="Vector_6" d="M120.593 28.864V37.2516C120.593 40.4436 122.03 41.768 123.912 41.768C126.033 41.768 127.401 40.3757 127.401 37.2516V28.864H129.283V37.1497C129.283 41.4963 126.957 43.2961 123.878 43.2961C120.936 43.2961 118.746 41.6322 118.746 37.2176V28.864H120.593Z" fill="white"/>
</g>
<g id="Group_6">
<path id="Vector_7" d="M156.891 42.4472C156.07 42.7529 154.428 43.2283 152.512 43.2283C150.357 43.2283 148.578 42.6849 147.175 41.3606C145.944 40.1721 145.191 38.2704 145.191 36.0632C145.225 31.8184 148.133 28.7283 152.923 28.7283C154.565 28.7283 155.865 29.1018 156.481 29.3735L156.036 30.8676C155.283 30.528 154.325 30.2564 152.888 30.2564C149.399 30.2564 147.141 32.3957 147.141 35.9613C147.141 39.5608 149.33 41.7002 152.649 41.7002C153.846 41.7002 154.702 41.5304 155.112 41.3266V37.0819H152.204V35.6217H156.925V42.4472H156.891Z" fill="white"/>
</g>
<g id="Group_7">
<path id="Vector_8" d="M185.115 36.8443C185.013 34.8748 184.876 32.4977 184.91 30.7319H184.842C184.363 32.3958 183.747 34.1616 183.028 36.1312L180.497 43.0246H179.094L176.768 36.267C176.084 34.2635 175.502 32.4298 175.126 30.7659H175.092C175.057 32.5317 174.955 34.9087 174.818 37.0481L174.442 43.1265H172.697L173.689 28.9321H176.049L178.478 35.7916C179.06 37.5235 179.573 39.0855 179.915 40.5797H179.984C180.36 39.1534 180.839 37.5914 181.489 35.7916L184.021 28.9321H186.381L187.271 43.1265H185.457L185.115 36.8443Z" fill="white"/>
</g>
<g id="Group_8">
<path id="Vector_9" d="M206.36 38.6099L204.889 43.0584H202.973L207.831 28.864H210.055L214.947 43.0584H212.963L211.423 38.6099H206.36ZM211.047 37.1837L209.644 33.1087C209.336 32.1919 209.131 31.3429 208.892 30.5279H208.857C208.652 31.3769 208.413 32.2258 208.139 33.1087L206.736 37.2176H211.047V37.1837Z" fill="white"/>
</g>
<g id="Group_9">
<path id="Vector_10" d="M230.582 43.0584V28.864H232.6L237.184 36.0291C238.245 37.6931 239.066 39.1872 239.75 40.6474L239.784 40.6134C239.613 38.7118 239.579 36.9799 239.579 34.7727V28.864H241.324V43.0584H239.442L234.892 35.8593C233.9 34.2973 232.942 32.6673 232.224 31.1392L232.155 31.1731C232.258 32.939 232.292 34.6368 232.292 37.0139V43.0924H230.582V43.0584Z" fill="white"/>
</g>
<g id="Group_10">
<path id="Vector_11" d="M258.292 43.0584V28.864H260.31L264.895 36.0291C265.955 37.6931 266.776 39.1872 267.46 40.6474L267.495 40.6134C267.324 38.7118 267.289 36.9799 267.289 34.7727V28.864H269.034V43.0584H267.153L262.603 35.8593C261.61 34.2973 260.653 32.6673 259.934 31.1392L259.866 31.1731C259.968 32.939 260.003 34.6368 260.003 37.0139V43.0924H258.292V43.0584Z" fill="white"/>
</g>
</g>
</g>
<g id="Group_11">
<g id="Group_12">
<g id="Group_13">
<path id="Vector_12" d="M73.656 18.3032C73.3823 18.439 72.8007 18.5748 72.0823 18.5748C70.3718 18.5748 69.106 17.5221 69.106 15.5526C69.106 13.6849 70.3718 12.4285 72.2534 12.4285C73.006 12.4285 73.4849 12.5983 73.6902 12.7001L73.5192 13.3453C73.2113 13.2095 72.8007 13.1076 72.3218 13.1076C70.9191 13.1076 69.9612 13.9905 69.9612 15.5865C69.9612 17.0467 70.8165 17.9976 72.2876 17.9976C72.7665 17.9976 73.2455 17.8957 73.5534 17.7598L73.656 18.3032Z" fill="white"/>
</g>
<g id="Group_14">
<path id="Vector_13" d="M86.3826 12.5303V15.0432H89.2905V12.5303H90.0773V18.5069H89.2905V15.7223H86.3826V18.5069H85.5957V12.5303H86.3826Z" fill="white"/>
</g>
<g id="Group_15">
<path id="Vector_14" d="M103.282 12.5303V16.0619C103.282 17.3862 103.864 17.9635 104.685 17.9635C105.575 17.9635 106.156 17.3862 106.156 16.0619V12.5303H106.943V16.0279C106.943 17.8617 105.985 18.6087 104.651 18.6087C103.419 18.6087 102.496 17.8956 102.496 16.0619V12.5303H103.282Z" fill="white"/>
</g>
</g>
</g>
<g id="Group_16">
<g id="Group_17">
<g id="Group_18">
<path id="Vector_15" d="M143.754 12.5303V16.0619C143.754 17.3862 144.336 17.9635 145.157 17.9635C146.046 17.9635 146.628 17.3862 146.628 16.0619V12.5303H147.415V16.0279C147.415 17.8617 146.457 18.6087 145.123 18.6087C143.891 18.6087 142.967 17.8956 142.967 16.0619V12.5303H143.754Z" fill="white"/>
</g>
<g id="Group_19">
<path id="Vector_16" d="M161.031 18.5069L159.081 12.5303H159.936L160.86 15.4846C161.133 16.2996 161.338 17.0127 161.51 17.7258H161.544C161.715 17.0467 161.954 16.2656 162.228 15.5186L163.254 12.5642H164.075L161.92 18.5408H161.031V18.5069Z" fill="white"/>
</g>
<g id="Group_20">
<path id="Vector_17" d="M179.505 18.3032C179.231 18.439 178.649 18.5748 177.931 18.5748C176.22 18.5748 174.955 17.5221 174.955 15.5526C174.955 13.6849 176.22 12.4285 178.102 12.4285C178.855 12.4285 179.334 12.5983 179.539 12.7001L179.368 13.3453C179.06 13.2095 178.649 13.1076 178.17 13.1076C176.768 13.1076 175.81 13.9905 175.81 15.5865C175.81 17.0467 176.665 17.9976 178.136 17.9976C178.615 17.9976 179.094 17.8957 179.402 17.7598L179.505 18.3032Z" fill="white"/>
</g>
</g>
</g>
<path id="Vector_18" d="M126.204 10.0854V20.103" stroke="white" stroke-width="2" stroke-miterlimit="10"/>
</g>
<defs>
<clipPath id="clip0_796_1063">
<rect width="269" height="58" fill="white"/>
</clipPath>
</defs>
</svg>
